<svg xmlns="http://www.w3.org/2000/svg" enable-background="new 0 0 24 24" height="24" viewBox="0 0 24 24" width="24" focusable="false" aria-hidden="true" style="pointer-events: none; display: inherit; width: 100%; height: 100%;"><path d="m6.49 3.5 2.99 2.99L8.3 7.68c-.57.56-.88 1.32-.88 2.12s.31 1.56.88 2.12l3.78 3.78c.57.57 1.32.88 2.12.88s1.56-.31 2.12-.88l1.18-1.18 2.99 2.99-1.23 1.23c-.81.81-1.88 1.26-3.03 1.26-.55 0-1.08-.1-1.59-.31-4.69-1.87-8.46-5.64-10.33-10.33-.64-1.6-.27-3.41.95-4.62L6.49 3.5m0-1.41L4.55 4.03c-1.5 1.5-1.96 3.74-1.17 5.7 1.99 4.97 5.92 8.9 10.89 10.89.64.25 1.3.38 1.96.38 1.38 0 2.73-.54 3.74-1.55l1.94-1.94-4.41-4.41-1.89 1.89c-.39.39-.9.59-1.41.59-.51 0-1.02-.2-1.41-.59l-3.78-3.78c-.78-.78-.78-2.05 0-2.83l1.89-1.89-4.41-4.4z"></path></svg>